<?xml version="1.0" encoding="utf-8"?>
<!-- Generator: Adobe Illustrator 16.0.0, SVG Export Plug-In . SVG Version: 6.00 Build 0)  -->
<!DOCTYPE svg PUBLIC "-//W3C//DTD SVG 1.1//EN" "http://www.w3.org/Graphics/SVG/1.1/DTD/svg11.dtd">
<svg version="1.1" id="Layer_1" xmlns="http://www.w3.org/2000/svg" xmlns:xlink="http://www.w3.org/1999/xlink" x="0px" y="0px"
	 width="80px" height="22px" viewBox="0 0 80 22" enable-background="new 0 0 80 22" xml:space="preserve">
<g>
	<g>
		<g>
			<g>
				<path fill="#FFFFFF" d="M18.797,11.543c-0.996,0-5.857,0-7.631,0v8.034h2.543v-2.109h5.523c0,0,1.407-0.216,1.407-1.895
					c0-1.675,0-2.16,0-2.16S20.527,11.543,18.797,11.543z M18.121,14.383c0,0,0,0,0,0.515c0,0.514-0.569,0.568-0.569,0.568h-3.844
					V13.52c0,0,3.325,0.013,3.917,0.013C18.22,13.532,18.121,14.383,18.121,14.383z"/>
			</g>
			<path fill="#FFFFFF" d="M26.846,11.543h-1.58h-1.583l-4.245,8.031h2.727l0.683-1.394h2.419h2.419l0.684,1.394h2.727
				L26.846,11.543z M25.268,16.469h-1.488l1.488-2.904l1.487,2.904H25.268z"/>
			<path fill="#FFFFFF" d="M39.49,11.53c-1.732,0-7.63,0.027-7.63,0.027v8.007h2.546v-2.108h4.338c0,0,2.586-0.217,2.586-1.899
				c0-1.672,0-2.16,0-2.16S41.223,11.53,39.49,11.53z M38.819,14.373c0,0,0,0,0,0.515s-0.572,0.569-0.572,0.569h-3.841v-1.95
				c0,0,3.323,0.017,3.914,0.017C38.913,13.523,38.819,14.373,38.819,14.373z"/>
			<path fill="#FFFFFF" d="M38.514,17.456c0,0,0.585,0.097,0.585,0.702c0,0.61-0.033,1.413-0.033,1.413h2.4v-1.954
				c0,0-0.069-0.883-0.578-1.022"/>
			<polygon fill="#FFFFFF" points="51.709,11.543 51.709,12.504 55.197,12.504 59.572,12.504 59.572,11.543 			"/>
			<polygon fill="#FFFFFF" points="51.709,18.636 51.709,19.597 55.197,19.597 59.572,19.597 59.572,18.636 			"/>
			<polygon fill="#FFFFFF" points="51.709,14.939 51.709,15.9 55.086,15.9 59.316,15.9 59.316,14.939 			"/>
			<polygon fill="#FFFFFF" points="52.669,11.543 51.709,11.543 51.709,15.124 51.709,19.613 52.669,19.613 			"/>
			<polygon fill="#FFFFFF" points="47.055,11.558 46.093,11.558 46.093,15.118 46.093,19.58 47.055,19.58 			"/>
			<polygon fill="#FFFFFF" points="50.588,12.504 50.588,11.543 47.024,11.543 42.562,11.543 42.562,12.504 			"/>
			<path fill="#FFFFFF" d="M62.426,11.543c0,0-1.779,0.163-1.779,1.41c0,1.248,0,5.292,0,5.292s-0.075,1.329,1.614,1.329
				c0.448,0,0.898,0,1.349,0c0.575,0,1.146,0,1.718,0c0.564,0,1.123,0,1.689,0c0.422,0,0.842,0,1.264,0
				c0.236,0,0.525,0.02,0.75-0.065c0.222-0.07,0.415-0.19,0.603-0.333c0.268-0.21,0.442-0.523,0.442-0.869c0-0.971,0-1.388,0-1.388
				h-1.027v0.86c0,0,0.131,0.97-1.053,0.97c-1.305,0-5.213,0-5.213,0s-1.19,0.169-1.19-1.332c0-1.497,0-3.907,0-3.907
				s-0.055-0.975,1.243-0.975c1.303,0,5.241,0,5.241,0s0.917-0.051,0.917,0.92c0,0.578,0,0.721,0,0.721h0.992
				c0-0.164,0-0.385,0-0.55c0-0.323,0.017-0.634-0.075-0.954c-0.09-0.307-0.263-0.582-0.501-0.795
				c-0.242-0.217-0.557-0.33-0.885-0.33c-1.225,0-6.132,0-6.132,0"/>
			<path fill="#FFFFFF" d="M72.903,11.543c0,0,4.3,0,5.524,0c0.326,0,0.639,0.113,0.883,0.33c0.238,0.212,0.411,0.488,0.503,0.796
				c0.094,0.319,0.08,0.348,0.08,0.672c0,0.165,0,0.389,0,0.549h-1.001c0,0,0,0.141,0-0.439c0-0.971-0.913-0.918-0.913-0.918
				s-3.327,0-4.63,0c-1.3,0-1.251,0.974-1.251,0.974s-0.349,1.49,1.266,1.49c1.612,0,2.603,0,2.603,0v1.042h-3.102
				c0,0-1.734-0.139-1.734-1.578c0-1.43-0.006-1.546-0.006-1.546c0-1.245,1.813-1.374,1.813-1.374"/>
			<path fill="#FFFFFF" d="M78.106,19.489c0,0-4.294,0-5.517,0c-0.328,0-0.642-0.109-0.891-0.333
				c-0.236-0.21-0.407-0.491-0.495-0.794c-0.094-0.314-0.079-0.35-0.079-0.674c0-0.168,0-0.389,0-0.55h0.996c0,0,0-0.139,0,0.442
				c0,0.972,0.913,0.913,0.913,0.913s3.33,0,4.632,0c1.3,0,1.247-0.974,1.247-0.974s0.349-1.484-1.262-1.484
				c-1.613,0-2.604,0-2.604,0v-1.039h3.102c0,0,1.735,0.136,1.735,1.569c0,1.436,0.007,1.552,0.007,1.552
				c0,1.242-1.816,1.371-1.816,1.371"/>
		</g>
	</g>
	<g>
		<g>
			<polygon fill="#FFFFFF" points="4.288,4.767 1.443,4.767 1.443,2.389 0.105,2.389 0.105,8.484 1.443,8.484 1.443,5.959 
				4.288,5.959 4.288,8.484 5.623,8.484 5.623,2.389 4.288,2.389 			"/>
			<path fill="#FFFFFF" d="M33.314,2.734c-0.28,0.289-0.292,0.707-0.299,0.949v4.8h1.333V6.538h2.836v1.946h1.338V2.387h-4.163
				C33.963,2.39,33.594,2.447,33.314,2.734z M34.69,3.58h2.494v1.77h-2.836V3.926c0.007-0.068-0.008-0.193,0.052-0.272
				C34.463,3.574,34.563,3.58,34.69,3.58z"/>
			<path fill="#FFFFFF" d="M23.859,2.389h-4.174v6.095h1.337V3.58h2.505c0.125,0.004,0.227-0.003,0.29,0.075
				c0.062,0.074,0.047,0.204,0.052,0.272v4.558h1.335V3.686c-0.008-0.245-0.02-0.663-0.299-0.95
				C24.628,2.447,24.257,2.39,23.859,2.389z"/>
			<path fill="#FFFFFF" d="M17.168,6.942c-0.005,0.073,0.006,0.198-0.053,0.273c-0.063,0.082-0.164,0.074-0.29,0.074h-2.506V2.389
				h-1.335v6.095h4.172c0.399-0.003,0.769-0.058,1.046-0.347c0.283-0.289,0.292-0.705,0.301-0.951V2.39h-1.336v4.553H17.168z"/>
			<path fill="#FFFFFF" d="M31.904,3.686c-0.005-0.245-0.016-0.663-0.294-0.95c-0.28-0.289-0.65-0.345-1.045-0.348H26.39v6.095
				h4.175c0.394-0.003,0.765-0.058,1.045-0.347c0.28-0.289,0.29-0.705,0.294-0.951V3.686z M30.575,6.942
				c-0.006,0.073,0.005,0.198-0.051,0.273C30.46,7.297,30.36,7.29,30.235,7.29h-2.508V3.58h2.508
				c0.125,0.004,0.226-0.003,0.288,0.074c0.058,0.074,0.045,0.204,0.051,0.272V6.942z"/>
			<polygon fill="#FFFFFF" points="9.304,5.052 7.682,2.389 6.094,2.389 8.591,6.231 8.591,8.484 10.019,8.484 10.019,6.231 
				12.511,2.389 10.923,2.389 			"/>
			<rect x="39.865" y="2.389" fill="#FFFFFF" width="1.42" height="6.095"/>
		</g>
	</g>
</g>
</svg>
